<svg width="164" height="41" viewBox="0 0 164 41" fill="none" xmlns="http://www.w3.org/2000/svg">
<path d="M59.786 29V23.192L54.22 13.864H57.564L61.282 20.376H61.37L65.286 13.864H68.41L62.756 23.104V29H59.786ZM70.0829 15.536V12.896H73.0969V15.536H70.0829ZM70.1709 29V18.264H73.0089V29H70.1709ZM75.3311 23.676C75.3311 22.8253 75.4631 22.048 75.7271 21.344C76.0057 20.64 76.3871 20.0387 76.8711 19.54C77.3697 19.0413 77.9637 18.66 78.6531 18.396C79.3424 18.132 80.0904 18 80.8971 18C81.7037 18 82.4297 18.1173 83.0751 18.352C83.7204 18.5867 84.2704 18.9387 84.7251 19.408C85.1944 19.8627 85.5464 20.4273 85.7811 21.102C86.0304 21.762 86.1551 22.51 86.1551 23.346V24.138H78.2351C78.2644 24.622 78.3451 25.0547 78.4771 25.436C78.6237 25.8173 78.8144 26.14 79.0491 26.404C79.2984 26.6533 79.5844 26.8513 79.9071 26.998C80.2297 27.13 80.5891 27.196 80.9851 27.196C81.3224 27.196 81.6231 27.1593 81.8871 27.086C82.1511 26.998 82.3784 26.888 82.5691 26.756C82.7597 26.6093 82.9137 26.448 83.0311 26.272C83.1484 26.096 83.2364 25.92 83.2951 25.744H86.0451C85.9571 26.228 85.7737 26.6827 85.4951 27.108C85.2311 27.5333 84.8717 27.9073 84.4171 28.23C83.9771 28.5527 83.4564 28.8093 82.8551 29C82.2684 29.176 81.6304 29.264 80.9411 29.264C80.0611 29.264 79.2691 29.1467 78.5651 28.912C77.8757 28.6627 77.2891 28.3033 76.8051 27.834C76.3211 27.35 75.9544 26.7633 75.7051 26.074C75.4557 25.37 75.3311 24.5707 75.3311 23.676ZM80.8971 20.046C80.5744 20.046 80.2737 20.0973 79.9951 20.2C79.7164 20.3027 79.4671 20.4567 79.2471 20.662C79.0271 20.8527 78.8364 21.0947 78.6751 21.388C78.5284 21.6667 78.4111 21.9967 78.3231 22.378H83.2731C83.2291 21.982 83.1411 21.6373 83.0091 21.344C82.8917 21.0507 82.7304 20.8087 82.5251 20.618C82.3344 20.4273 82.0997 20.288 81.8211 20.2C81.5571 20.0973 81.2491 20.046 80.8971 20.046ZM88.497 29V12.896H91.335V29H88.497ZM93.7012 23.72C93.7012 22.84 93.8259 22.048 94.0752 21.344C94.3392 20.6253 94.6986 20.0167 95.1532 19.518C95.6226 19.0193 96.1579 18.6453 96.7592 18.396C97.3752 18.132 98.0279 18 98.7172 18C99.1132 18 99.4799 18.0367 99.8172 18.11C100.155 18.1833 100.463 18.3007 100.741 18.462C101.035 18.6087 101.291 18.7993 101.511 19.034C101.731 19.254 101.915 19.5107 102.061 19.804H102.149C102.12 19.4813 102.091 19.144 102.061 18.792C102.047 18.44 102.032 18.11 102.017 17.802C102.017 17.4793 102.017 17.2007 102.017 16.966C102.017 16.7313 102.017 16.4747 102.017 16.196V12.896H104.855V29H102.149V27.46H102.061C101.915 27.7533 101.724 28.0173 101.489 28.252C101.255 28.472 100.983 28.6627 100.675 28.824C100.382 28.9707 100.052 29.0807 99.6852 29.154C99.3332 29.2273 98.9519 29.264 98.5412 29.264C97.8666 29.264 97.2359 29.1467 96.6492 28.912C96.0626 28.6627 95.5492 28.3033 95.1092 27.834C94.6692 27.3647 94.3246 26.7853 94.0752 26.096C93.8259 25.392 93.7012 24.6 93.7012 23.72ZM96.6272 23.72C96.6272 24.248 96.6859 24.7247 96.8032 25.15C96.9352 25.5753 97.1186 25.9347 97.3532 26.228C97.6026 26.5067 97.8886 26.7267 98.2112 26.888C98.5486 27.0347 98.9152 27.108 99.3112 27.108C99.6926 27.108 100.045 27.0347 100.367 26.888C100.69 26.7267 100.969 26.5067 101.203 26.228C101.453 25.9347 101.643 25.5827 101.775 25.172C101.922 24.7613 102.003 24.3067 102.017 23.808V23.632C102.017 23.104 101.951 22.6273 101.819 22.202C101.687 21.762 101.497 21.3953 101.247 21.102C101.013 20.794 100.727 20.5593 100.389 20.398C100.067 20.2367 99.7072 20.156 99.3112 20.156C98.9152 20.156 98.5486 20.244 98.2112 20.42C97.8886 20.5813 97.6026 20.8233 97.3532 21.146C97.1186 21.454 96.9352 21.828 96.8032 22.268C96.6859 22.708 96.6272 23.192 96.6272 23.72ZM112.334 24.688H115.216C115.216 25.04 115.29 25.37 115.436 25.678C115.598 25.9713 115.818 26.2207 116.096 26.426C116.39 26.6313 116.734 26.7927 117.13 26.91C117.541 27.0127 117.988 27.064 118.472 27.064C119 27.064 119.47 27.0127 119.88 26.91C120.291 26.8073 120.643 26.6607 120.936 26.47C121.23 26.2647 121.45 26.0227 121.596 25.744C121.743 25.4653 121.816 25.1427 121.816 24.776C121.816 24.4533 121.736 24.1747 121.574 23.94C121.428 23.7053 121.215 23.5147 120.936 23.368C120.672 23.2213 120.364 23.0967 120.012 22.994C119.675 22.8913 119.272 22.796 118.802 22.708L117.79 22.532C117.028 22.4 116.36 22.2533 115.788 22.092C115.216 21.9307 114.681 21.696 114.182 21.388C113.698 21.0653 113.31 20.64 113.016 20.112C112.723 19.584 112.576 18.9313 112.576 18.154C112.576 17.5087 112.716 16.9073 112.994 16.35C113.273 15.7927 113.669 15.3087 114.182 14.898C114.71 14.4873 115.341 14.172 116.074 13.952C116.808 13.7173 117.622 13.6 118.516 13.6C119.396 13.6 120.196 13.7027 120.914 13.908C121.633 14.1133 122.249 14.4067 122.762 14.788C123.276 15.1693 123.664 15.6313 123.928 16.174C124.207 16.702 124.346 17.296 124.346 17.956H121.464C121.464 17.6187 121.391 17.318 121.244 17.054C121.098 16.7753 120.892 16.548 120.628 16.372C120.364 16.1813 120.049 16.042 119.682 15.954C119.33 15.8513 118.942 15.8 118.516 15.8C118.091 15.8 117.695 15.844 117.328 15.932C116.962 16.02 116.639 16.152 116.36 16.328C116.096 16.504 115.891 16.724 115.744 16.988C115.598 17.2373 115.524 17.5307 115.524 17.868C115.524 18.2053 115.605 18.4913 115.766 18.726C115.942 18.9607 116.177 19.1587 116.47 19.32C116.778 19.4667 117.116 19.5913 117.482 19.694C117.864 19.782 118.318 19.87 118.846 19.958L119.858 20.134C120.577 20.266 121.215 20.42 121.772 20.596C122.33 20.772 122.836 21.0213 123.29 21.344C123.76 21.652 124.134 22.07 124.412 22.598C124.691 23.1113 124.83 23.742 124.83 24.49C124.83 25.194 124.691 25.8393 124.412 26.426C124.134 27.0127 123.716 27.5187 123.158 27.944C122.616 28.3693 121.948 28.6993 121.156 28.934C120.364 29.154 119.47 29.264 118.472 29.264C117.49 29.264 116.61 29.1613 115.832 28.956C115.07 28.736 114.424 28.428 113.896 28.032C113.383 27.636 112.994 27.1593 112.73 26.602C112.466 26.03 112.334 25.392 112.334 24.688ZM126.808 23.632C126.808 22.7667 126.94 21.9893 127.204 21.3C127.482 20.596 127.864 20.002 128.348 19.518C128.846 19.0193 129.44 18.6453 130.13 18.396C130.819 18.132 131.574 18 132.396 18C133.173 18 133.862 18.1027 134.464 18.308C135.08 18.5133 135.6 18.7993 136.026 19.166C136.466 19.518 136.81 19.9433 137.06 20.442C137.309 20.926 137.463 21.4467 137.522 22.004H134.728C134.684 21.7547 134.603 21.52 134.486 21.3C134.383 21.08 134.236 20.882 134.046 20.706C133.855 20.53 133.62 20.398 133.342 20.31C133.063 20.2073 132.748 20.156 132.396 20.156C132 20.156 131.64 20.244 131.318 20.42C130.995 20.5813 130.709 20.816 130.46 21.124C130.225 21.432 130.042 21.806 129.91 22.246C129.792 22.6713 129.734 23.1333 129.734 23.632C129.734 24.1307 129.792 24.6 129.91 25.04C130.042 25.4653 130.225 25.832 130.46 26.14C130.709 26.448 130.995 26.69 131.318 26.866C131.64 27.0273 132 27.108 132.396 27.108C132.748 27.108 133.063 27.064 133.342 26.976C133.62 26.8733 133.855 26.734 134.046 26.558C134.236 26.382 134.383 26.184 134.486 25.964C134.603 25.744 134.684 25.5093 134.728 25.26H137.522C137.463 25.832 137.309 26.36 137.06 26.844C136.825 27.328 136.488 27.7533 136.048 28.12C135.622 28.472 135.102 28.7507 134.486 28.956C133.87 29.1613 133.173 29.264 132.396 29.264C131.545 29.264 130.775 29.1393 130.086 28.89C129.396 28.6407 128.802 28.274 128.304 27.79C127.82 27.306 127.446 26.712 127.182 26.008C126.932 25.304 126.808 24.512 126.808 23.632ZM139.272 26.228C139.272 25.7733 139.338 25.37 139.47 25.018C139.616 24.6513 139.836 24.336 140.13 24.072C140.438 23.7933 140.819 23.566 141.274 23.39C141.743 23.1993 142.293 23.0527 142.924 22.95L144.992 22.642C145.285 22.598 145.52 22.554 145.696 22.51C145.872 22.4513 146.004 22.3927 146.092 22.334C146.194 22.2753 146.26 22.202 146.29 22.114C146.334 22.026 146.356 21.916 146.356 21.784C146.356 21.52 146.312 21.278 146.224 21.058C146.15 20.838 146.033 20.6473 145.872 20.486C145.725 20.3247 145.527 20.2 145.278 20.112C145.043 20.024 144.764 19.98 144.442 19.98C144.119 19.98 143.826 20.024 143.562 20.112C143.312 20.1853 143.1 20.3027 142.924 20.464C142.748 20.6107 142.608 20.794 142.506 21.014C142.418 21.234 142.359 21.476 142.33 21.74H139.69C139.734 21.1533 139.873 20.6253 140.108 20.156C140.357 19.6867 140.694 19.2907 141.12 18.968C141.545 18.6453 142.036 18.4033 142.594 18.242C143.166 18.0807 143.782 18 144.442 18C145.234 18 145.923 18.088 146.51 18.264C147.111 18.4253 147.61 18.6747 148.006 19.012C148.402 19.3347 148.695 19.738 148.886 20.222C149.091 20.706 149.194 21.2707 149.194 21.916V29H146.488V27.724H146.356C146.194 27.9733 145.996 28.1933 145.762 28.384C145.542 28.5747 145.285 28.736 144.992 28.868C144.713 29 144.398 29.0953 144.046 29.154C143.694 29.2273 143.32 29.264 142.924 29.264C142.337 29.264 141.809 29.1907 141.34 29.044C140.885 28.8973 140.504 28.692 140.196 28.428C139.888 28.164 139.653 27.8487 139.492 27.482C139.345 27.1007 139.272 26.6827 139.272 26.228ZM143.738 27.284C144.075 27.284 144.398 27.2327 144.706 27.13C145.028 27.0273 145.314 26.866 145.564 26.646C145.813 26.426 146.004 26.1547 146.136 25.832C146.282 25.4947 146.356 25.106 146.356 24.666V23.72C146.312 23.7933 146.253 23.8593 146.18 23.918C146.106 23.962 146.026 24.006 145.938 24.05C145.85 24.0793 145.754 24.1087 145.652 24.138C145.549 24.1673 145.432 24.1967 145.3 24.226L143.65 24.49C143.371 24.534 143.129 24.6 142.924 24.688C142.718 24.776 142.55 24.886 142.418 25.018C142.3 25.1353 142.212 25.2747 142.154 25.436C142.095 25.5827 142.066 25.7513 142.066 25.942C142.066 26.1473 142.102 26.338 142.176 26.514C142.249 26.6753 142.352 26.8147 142.484 26.932C142.63 27.0493 142.806 27.1373 143.012 27.196C143.217 27.2547 143.459 27.284 143.738 27.284ZM152.134 29V18.264H154.84V19.804H154.928C155.074 19.5107 155.258 19.254 155.478 19.034C155.712 18.7993 155.969 18.6087 156.248 18.462C156.526 18.3007 156.827 18.1833 157.15 18.11C157.487 18.0367 157.846 18 158.228 18C158.8 18 159.335 18.0807 159.834 18.242C160.332 18.4033 160.765 18.66 161.132 19.012C161.513 19.364 161.814 19.8333 162.034 20.42C162.254 20.992 162.364 21.6813 162.364 22.488V29H159.526V22.84C159.526 22.356 159.474 21.9453 159.372 21.608C159.284 21.2707 159.144 20.9993 158.954 20.794C158.778 20.5887 158.558 20.442 158.294 20.354C158.044 20.2513 157.758 20.2 157.436 20.2C157.084 20.2 156.754 20.2733 156.446 20.42C156.152 20.552 155.896 20.7573 155.676 21.036C155.456 21.3147 155.28 21.652 155.148 22.048C155.03 22.4293 154.972 22.862 154.972 23.346V29H152.134Z" fill="#2D3748"/>
<mask id="mask0" mask-type="alpha" maskUnits="userSpaceOnUse" x="0" y="0" width="41" height="41">
<circle cx="20.5" cy="20.5" r="20.5" fill="#E50B7B"/>
</mask>
<g mask="url(#mask0)">
<circle cx="20.5" cy="20.5" r="20.5" fill="#19CC95"/>
<path d="M28.032 26.6548L37.1951 35.8179" stroke="white" stroke-width="4" stroke-linecap="round" stroke-linejoin="round"/>
<circle cx="21.0378" cy="20.0378" r="9.03778" stroke="white" stroke-width="4"/>
<path d="M-2 20C7.87805 33.5 14.9365 26.9527 19.9512 20C25 13 32.0244 6.50002 43 20" stroke="white" stroke-opacity="0.5" stroke-width="4"/>
</g>
</svg>
