<svg xmlns="http://www.w3.org/2000/svg" width="102.124" height="163.46" viewBox="0 0 102.124 163.46">
  <g id="Group_231" data-name="Group 231" transform="translate(-153.057 -95.016)">
    <g id="Group_213" data-name="Group 213" transform="translate(172.891 140.495)">
      <path id="Path_312" data-name="Path 312" d="M221.912,234.6l-16.39-21.066s.376-3.819,10.956-3.451,25.9-2.492,35.809-2.718a125.209,125.209,0,0,1,22.819,1.889L257.978,234.6Z" transform="translate(-205.522 -207.344)" fill="#bbbdbf"/>
    </g>
    <g id="Group_216" data-name="Group 216" transform="translate(188.555 103.343)">
      <path id="Path_313" data-name="Path 313" d="M300.585,121.545c-10.338,17.792-20.4,35.8-26.04,54.822-9.175-2.718-18.336-5.438-27.588-8.166,4.754-19.222,6.2-38.689,10.3-59.13A189.43,189.43,0,0,1,300.585,121.545Z" transform="translate(-246.957 -109.071)" fill="#8bc543" stroke="#006738" stroke-miterlimit="10" stroke-width="9.57"/>
      <path id="Path_314" data-name="Path 314" d="M287.273,169.338c8.207,2.351,12.378,9.357,9.565,15.183a14.3,14.3,0,0,1-16.565,7.212c-6.487-1.9-11.1-8.45-10.113-14.743C271.165,170.727,279.06,167.038,287.273,169.338Z" transform="translate(-261.306 -146.126)" fill="#006738"/>
      <path id="Path_315" data-name="Path 315" d="M246.957,253.357q3.694,1.09,7.361,2.176a7.842,7.842,0,0,0-5.653-9.545C248.154,248.454,247.591,250.911,246.957,253.357Z" transform="translate(-246.957 -194.228)" fill="#006738"/>
      <g id="Group_215" data-name="Group 215" transform="translate(11.838 28.037)">
        <g id="Group_214" data-name="Group 214" transform="translate(2.688)">
          <path id="Path_316" data-name="Path 316" d="M290.314,186.3c-1.053-.21-1.781.449-2.176,1.958s-.127,2.4.805,2.664a1.358,1.358,0,0,0,1.446-.384,15.286,15.286,0,0,0,1.753-2.686,6.135,6.135,0,0,1,2.708-2.759,5,5,0,0,1,3.516-.119,3.911,3.911,0,0,1,2.885,2.672,6.067,6.067,0,0,1-.242,4.065c-1.321,3.346-3.506,4.811-6.582,4.437q.332-1.446.67-2.889c1.644.251,2.783-.514,3.443-2.3.619-1.677.239-2.728-1.157-3.135a1.713,1.713,0,0,0-1.583.22,10,10,0,0,0-1.919,2.623,7.283,7.283,0,0,1-2.591,2.849,3.77,3.77,0,0,1-2.891.284,3.959,3.959,0,0,1-2.507-2.1,5.9,5.9,0,0,1-.267-4.158c.781-3.338,2.6-4.752,5.379-4.175Q290.657,184.832,290.314,186.3Z" transform="translate(-285.381 -183.235)" fill="#8bc543"/>
        </g>
        <path id="Path_317" data-name="Path 317" d="M281.89,189.594c-.222.913-.444,1.826-.662,2.736q-1.471-.392-2.956-.776.294-1.372.585-2.748Q280.389,189.2,281.89,189.594Z" transform="translate(-278.272 -186.701)" fill="#8bc543"/>
        <path id="Path_318" data-name="Path 318" d="M327.82,202.736q-.553,1.311-1.1,2.621-1.438-.438-2.867-.861.5-1.326,1.023-2.652Q326.346,202.286,327.82,202.736Z" transform="translate(-306.625 -194.809)" fill="#8bc543"/>
      </g>
      <path id="Path_319" data-name="Path 319" d="M306.753,274.28q1.119-3.643,2.4-7.242a7.76,7.76,0,0,0-9.71,5.073Q303.093,273.2,306.753,274.28Z" transform="translate(-279.599 -207.112)" fill="#006738"/>
      <path id="Path_320" data-name="Path 320" d="M367.753,134.331q-5.6-2.3-11.225-4.262c-1.817,4.125,1.446,8.935,7.354,11.128C365.174,138.906,366.474,136.617,367.753,134.331Z" transform="translate(-314.794 -122.131)" fill="#006738"/>
      <path id="Path_321" data-name="Path 321" d="M271.873,109.071q-.746,3.926-1.418,7.795c6.245,1.132,12.008-1.146,13.3-5.5Q277.892,110.026,271.873,109.071Z" transform="translate(-261.572 -109.071)" fill="#006738"/>
      <path id="Path_322" data-name="Path 322" d="M287.768,242.275a2.626,2.626,0,0,1,1.856,3.258,2.7,2.7,0,0,1-5.18-1.518A2.63,2.63,0,0,1,287.768,242.275Z" transform="translate(-270.216 -191.847)" fill="#006738"/>
      <path id="Path_323" data-name="Path 323" d="M317.315,143.421c2.016.576,3.177,2.215,2.632,3.623s-2.526,2.078-4.434,1.543-3.108-2.114-2.671-3.559S315.3,142.846,317.315,143.421Z" transform="translate(-287.879 -130.314)" fill="#006738"/>
    </g>
    <g id="Group_219" data-name="Group 219" transform="translate(189.18 99.862)">
      <path id="Path_324" data-name="Path 324" d="M295,106c-7.679,19.091-15.065,38.351-17.917,57.99-9.47-1.378-18.927-2.759-28.473-4.132,1.951-19.7.6-39.18,1.727-60A189.438,189.438,0,0,1,295,106Z" transform="translate(-248.611 -99.862)" fill="#8bc543" stroke="#006738" stroke-miterlimit="10" stroke-width="9.57"/>
      <path id="Path_325" data-name="Path 325" d="M276.915,154.436c8.463,1.148,13.589,7.487,11.641,13.655A14.3,14.3,0,0,1,273.2,177.6c-6.694-.955-12.194-6.775-12.124-13.143C261.17,158.117,268.456,153.335,276.915,154.436Z" transform="translate(-256.361 -133.706)" fill="#006738"/>
      <path id="Path_326" data-name="Path 326" d="M248.611,246.162q3.807.548,7.595,1.1a7.845,7.845,0,0,0-6.961-8.635C249.092,241.136,248.888,243.648,248.611,246.162Z" transform="translate(-248.611 -186.166)" fill="#006738"/>
      <g id="Group_218" data-name="Group 218" transform="translate(7.96 26.448)">
        <g id="Group_217" data-name="Group 217" transform="translate(2.78)">
          <path id="Path_327" data-name="Path 327" d="M281.524,172.843c-1.071-.055-1.7.7-1.875,2.253s.22,2.4,1.182,2.52a1.361,1.361,0,0,0,1.375-.589,15,15,0,0,0,1.346-2.908A6.157,6.157,0,0,1,285.84,171a5,5,0,0,1,3.459-.621,3.912,3.912,0,0,1,3.241,2.23,6.063,6.063,0,0,1,.343,4.058c-.829,3.5-2.782,5.263-5.88,5.334q.123-1.476.249-2.954c1.665.012,2.683-.908,3.079-2.775.372-1.746-.153-2.734-1.591-2.937a1.714,1.714,0,0,0-1.537.444,10.041,10.041,0,0,0-1.524,2.87,7.262,7.262,0,0,1-2.158,3.193,3.759,3.759,0,0,1-2.819.694,3.951,3.951,0,0,1-2.782-1.72,5.9,5.9,0,0,1-.859-4.079c.291-3.413,1.892-5.074,4.724-4.9C281.7,170.841,281.608,171.843,281.524,172.843Z" transform="translate(-277.021 -169.823)" fill="#8bc543"/>
        </g>
        <path id="Path_328" data-name="Path 328" d="M272.963,178.319q-.133,1.405-.265,2.8-1.506-.178-3.032-.345.09-1.4.187-2.8Q271.416,178.142,272.963,178.319Z" transform="translate(-269.666 -174.893)" fill="#8bc543"/>
        <path id="Path_329" data-name="Path 329" d="M320.273,184.642q-.36,1.377-.707,2.751-1.483-.226-2.962-.444.311-1.384.634-2.768C318.247,184.332,319.257,184.483,320.273,184.642Z" transform="translate(-298.859 -178.753)" fill="#8bc543"/>
      </g>
      <path id="Path_330" data-name="Path 330" d="M310.323,256.825q.59-3.766,1.335-7.51a7.757,7.757,0,0,0-8.883,6.41Q306.548,256.274,310.323,256.825Z" transform="translate(-282.299 -192.762)" fill="#006738"/>
      <path id="Path_331" data-name="Path 331" d="M349.834,111.343q-5.868-1.474-11.719-2.61c-1.209,4.346,2.711,8.636,8.873,9.958C347.938,116.238,348.895,113.787,349.834,111.343Z" transform="translate(-304.143 -105.379)" fill="#006738"/>
      <path id="Path_332" data-name="Path 332" d="M252.7,99.862q-.183,3.993-.29,7.917c6.344.226,11.719-2.852,12.375-7.342Q258.794,99.946,252.7,99.862Z" transform="translate(-250.975 -99.862)" fill="#006738"/>
      <path id="Path_333" data-name="Path 333" d="M286.227,229.085a2.623,2.623,0,0,1,2.3,2.959,2.7,2.7,0,0,1-5.344-.76A2.634,2.634,0,0,1,286.227,229.085Z" transform="translate(-270.103 -180.216)" fill="#006738"/>
      <path id="Path_334" data-name="Path 334" d="M301.288,126.849c2.08.281,3.464,1.737,3.123,3.208s-2.2,2.421-4.167,2.161-3.378-1.648-3.152-3.138S299.211,126.569,301.288,126.849Z" transform="translate(-278.749 -116.618)" fill="#006738"/>
    </g>
    <path id="Path_335" data-name="Path 335" d="M266.65,493.982c0,3.278-23.829,5.931-50.1,5.931s-45.048-2.654-45.048-5.931,18.774-5.93,45.048-5.93S266.65,490.709,266.65,493.982Z" transform="translate(-11.47 -241.438)" fill="#221f1f" opacity="0.3"/>
    <g id="Group_222" data-name="Group 222" transform="translate(162.214 140.519)">
      <path id="Path_336" data-name="Path 336" d="M221.912,234.641l-16.39-21.066s.376-6.52,10.956-6.152,21.861,4.921,31.759,5.384a84.058,84.058,0,0,0,26.869-3.512l-17.129,25.347Z" transform="translate(-194.845 -207.407)" fill="#e6e6e7"/>
      <path id="Path_337" data-name="Path 337" d="M261.24,318.175c-5.266-12.947-13.364-26.477-20.829-38.73H204.346a398.157,398.157,0,0,0-20.664,38.73c-12.442,27.26-5.352,36.245,9.249,42.685,10.831,4.777,48.226,4.777,59.057,0C266.593,354.42,270.274,340.386,261.24,318.175Z" transform="translate(-177.278 -252.212)" fill="#e6e6e7"/>
      <g id="Group_221" data-name="Group 221" transform="translate(27.188 46.031)">
        <g id="Group_220" data-name="Group 220" transform="translate(0 6.708)">
          <path id="Path_338" data-name="Path 338" d="M273.693,357.25q-.327-3.891-7.19-3.913-6.889-.026-6.905,3.65a3.384,3.384,0,0,0,2.208,3.268,46.22,46.22,0,0,0,8.922,2.331q6.708,1.312,9.838,4.337a10.361,10.361,0,0,1,3.12,7.855,9.659,9.659,0,0,1-5.071,8.689,21.737,21.737,0,0,1-11.552,3.03q-15.708-.058-17.866-12.1l8.674-.67q.937,6.319,9.271,6.347,7.808.028,7.825-5.264a3.8,3.8,0,0,0-1.885-3.5q-1.887-1.156-8.881-2.545t-10.087-4.206a9.055,9.055,0,0,1-3.081-7,9.339,9.339,0,0,1,4.019-7.583q4.005-3.1,11.624-3.067,15.1.052,15.79,10.054Z" transform="translate(-249.197 -346.913)" fill="#e2a540"/>
        </g>
        <path id="Path_339" data-name="Path 339" d="M293.742,336.711l-8.256-.032.021-7.511,8.262.027Z" transform="translate(-271.767 -329.168)" fill="#e2a540"/>
        <path id="Path_340" data-name="Path 340" d="M293.34,455.311l-8.262-.031.021-7.513,8.259.03Z" transform="translate(-271.514 -402.932)" fill="#e2a540"/>
      </g>
      <path id="Path_341" data-name="Path 341" d="M281.935,277.6a1.482,1.482,0,0,1-1.61,1.3H240.286a1.482,1.482,0,0,1-1.612-1.3v-1.071a1.482,1.482,0,0,1,1.612-1.3h40.039a1.482,1.482,0,0,1,1.61,1.3Z" transform="translate(-215.464 -249.589)" fill="#744c29"/>
      <path id="Path_342" data-name="Path 342" d="M319.028,426.379c6.664,4.8,18.56.719,22.965-2.4,6.124-4.344,8.929-13,8.224-19.194a50.738,50.738,0,0,0-4.177-16.16c-.888-2.05,3.038,6.252-1.734,17.44-3.56,8.35-13.859,10.479-20.687,11.249C318.842,417.851,312.4,421.6,319.028,426.379Z" transform="translate(-263.676 -319.921)" fill="#d0d2d3"/>
      <path id="Path_343" data-name="Path 343" d="M312.973,251.41s12.612-4.583,18.84-10.992c7.034-7.237-6.919,10.992-6.919,10.992Z" transform="translate(-261.675 -226.882)" fill="#d0d2d3"/>
      <path id="Path_344" data-name="Path 344" d="M218.309,227.774s.238.184.625.529.927.846,1.547,1.47a51.931,51.931,0,0,1,4.171,4.858,51.356,51.356,0,0,1,3.567,5.318c.435.764.776,1.417,1,1.884s.341.744.341.744-.239-.184-.626-.527-.928-.846-1.548-1.47a48.452,48.452,0,0,1-4.169-4.86,51.725,51.725,0,0,1-3.565-5.319c-.436-.763-.777-1.417-1-1.883S218.309,227.774,218.309,227.774Z" transform="translate(-202.798 -220.075)" fill="#f7f7f7"/>
      <path id="Path_345" data-name="Path 345" d="M221.285,291.932s-.2.614-.594,1.666-.969,2.55-1.715,4.317c-1.464,3.551-3.611,8.186-5.914,12.742s-4.773,9.028-6.77,12.308c-.983,1.648-1.85,3-2.467,3.937s-.992,1.465-.992,1.465.2-.614.594-1.667.967-2.55,1.713-4.318c1.463-3.551,3.611-8.185,5.916-12.741s4.777-9.026,6.773-12.307c.984-1.648,1.849-3,2.466-3.937S221.285,291.932,221.285,291.932Z" transform="translate(-193.172 -259.978)" fill="#f7f7f7"/>
    </g>
    <g id="Group_230" data-name="Group 230" transform="translate(153.057 218.371)">
      <g id="Group_225" data-name="Group 225" transform="translate(1.627)">
        <path id="Path_346" data-name="Path 346" d="M191.236,435.547a17.291,17.291,0,1,1-11.671-21.489A17.293,17.293,0,0,1,191.236,435.547Z" transform="translate(-157.36 -413.343)" fill="#e8af2e"/>
        <path id="Path_347" data-name="Path 347" d="M193.381,439.8a14.166,14.166,0,1,1-9.562-17.606A14.166,14.166,0,0,1,193.381,439.8Z" transform="translate(-162.502 -418.483)" fill="#f9ca35"/>
        <g id="Group_224" data-name="Group 224" transform="translate(9.241 6.185)">
          <g id="Group_223" data-name="Group 223" transform="translate(0 2.682)">
            <path id="Path_348" data-name="Path 348" d="M193.918,442.37c.224-1.085-.593-1.906-2.46-2.465s-2.96-.342-3.259.655a1.44,1.44,0,0,0,.506,1.6,19.743,19.743,0,0,0,3.359,2.03,8.191,8.191,0,0,1,3.491,2.957,4.408,4.408,0,0,1,.323,3.581,4.109,4.109,0,0,1-3.117,2.934,9.248,9.248,0,0,1-5.079-.16q-6.4-1.922-5.828-7.1l3.619.773q-.38,2.692,3.016,3.71,3.182.954,3.828-1.2a1.619,1.619,0,0,0-.347-1.654,14.294,14.294,0,0,0-3.316-2.11,9.044,9.044,0,0,1-3.607-2.935,3.851,3.851,0,0,1-.412-3.227,3.978,3.978,0,0,1,2.556-2.61,7.922,7.922,0,0,1,5.114.154q6.153,1.844,5.228,6.009Z" transform="translate(-181.806 -436.798)" fill="#c38728"/>
          </g>
          <rect id="Rectangle_73" data-name="Rectangle 73" width="3.197" height="3.514" transform="matrix(0.287, -0.958, 0.958, 0.287, 8.866, 3.062)" fill="#c38728"/>
          <rect id="Rectangle_74" data-name="Rectangle 74" width="3.197" height="3.515" transform="translate(3.387 21.336) rotate(-73.286)" fill="#c38728"/>
        </g>
      </g>
      <g id="Group_229" data-name="Group 229" transform="translate(0 3.754)">
        <g id="Group_226" data-name="Group 226" transform="translate(0.637)">
          <path id="Path_349" data-name="Path 349" d="M159.661,433.112a7.982,7.982,0,0,1,1.048-3.872,8.051,8.051,0,0,1,3.87-1.048,7.487,7.487,0,0,1-3.87-1.047,7.326,7.326,0,0,1-1.048-3.872,7.163,7.163,0,0,1-1.115,3.938c-.611.61-2.48.981-3.8.981a7.52,7.52,0,0,1,3.87,1.048A7.476,7.476,0,0,1,159.661,433.112Z" transform="translate(-154.742 -423.272)" fill="#fff"/>
        </g>
        <g id="Group_227" data-name="Group 227" transform="translate(7.089 7.099)">
          <path id="Path_350" data-name="Path 350" d="M173.56,445.554a1.434,1.434,0,0,1,1.751-1.751,2.662,2.662,0,0,1-1.378-.373,2.609,2.609,0,0,1-.373-1.378,2.56,2.56,0,0,1-.4,1.4,2.412,2.412,0,0,1-1.354.349,1.435,1.435,0,0,1,1.751,1.751Z" transform="translate(-171.809 -442.051)" fill="#fff"/>
        </g>
        <g id="Group_228" data-name="Group 228" transform="translate(0 9.445)">
          <path id="Path_351" data-name="Path 351" d="M155.487,453.118a1.991,1.991,0,0,1,2.429-2.431,3.7,3.7,0,0,1-1.911-.517,3.618,3.618,0,0,1-.518-1.913,3.537,3.537,0,0,1-.551,1.946,3.343,3.343,0,0,1-1.88.484,1.991,1.991,0,0,1,2.43,2.431Z" transform="translate(-153.057 -448.257)" fill="#fff"/>
        </g>
      </g>
    </g>
  </g>
</svg>
